# xmcd
#
# Track frame offsets: 
#        150
#        13534
#        27080
#        35067
#        48970
#        62807
#        77400
#        97557
#        115195
#        136332
#        157892
#        177780
#        197362
#        208182
#
# Disc length: 2792 seconds
#
# Revision: 0
# Processed by: cddbd v1.5.2PL0 Copyright (c) Steve Scherf et al.
# Submitted via: ExactAudioCopy v0.95b3
#
DISCID=a30ae60e
DTITLE=Various Artist - Broken Blues Implosion
DYEAR=1900
DGENRE=Blues
TTITLE0=Robert Petway - Catfish Blues
TTITLE1=Sid Hemphil Band - Jesse James
TTITLE2=Skip James - Devil Got My Woman
TTITLE3=Fred McDowell - Going Down South, Carry My Whip
TTITLE4=Fred McDowell - Keep Your Lamp Trimmed and Burning
TTITLE5=R.L. Burnside - Jumper Hanging Out On The Line
TTITLE6=Junior Kimbrough - Do The Rump!
TTITLE7=Hezekiah And The House Rockers - Do Your Thing
TTITLE8=Jessie Mae Hemphill - She-Wolf
TTITLE9=R.L. Burnside - Snake Driver
TTITLE10=Paul "Wine" Jones - My Baby Got Drunk
TTITLE11=Othar Turner - My Babe
TTITLE12=Andre Williams - Agile, Mobile and Hostile
TTITLE13=R.L. Burnside - Interview
EXTD=
EXTT0=
EXTT1=
EXTT2=
EXTT3=
EXTT4=
EXTT5=
EXTT6=
EXTT7=
EXTT8=
EXTT9=
EXTT10=
EXTT11=
EXTT12=
EXTT13=
PLAYORDER=
